{
	"asset":{
		"generator":"Khronos glTF Blender I/O v4.4.56",
		"version":"2.0"
	},
	"scene":0,
	"scenes":[
		{
			"name":"Scene",
			"nodes":[
				0
			]
		}
	],
	"nodes":[
		{
			"mesh":0,
			"name":"chair",
			"scale":[
				0.31923648715019226,
				0.9143924117088318,
				0.4163006842136383
			]
		}
	],
	"materials":[
		{
			"doubleSided":true,
			"name":"e-sports",
			"pbrMetallicRoughness":{
				"baseColorTexture":{
					"index":0
				},
				"metallicFactor":0,
				"roughnessFactor":0.5
			}
		}
	],
	"meshes":[
		{
			"name":"Cylinder",
			"primitives":[
				{
					"attributes":{
						"POSITION":0,
						"NORMAL":1,
						"TEXCOORD_0":2
					},
					"indices":3,
					"material":0
				}
			]
		}
	],
	"textures":[
		{
			"sampler":0,
			"source":0
		}
	],
	"images":[
		{
			"bufferView":4,
			"mimeType":"image/jpeg",
			"name":"myPalette.jpg"
		}
	],
	"accessors":[
		{
			"bufferView":0,
			"componentType":5126,
			"count":6142,
			"max":[
				6.743710041046143,
				7.663981914520264,
				5.100629806518555
			],
			"min":[
				-6.551990509033203,
				-0.8246704339981079,
				-5.836943626403809
			],
			"type":"VEC3"
		},
		{
			"bufferView":1,
			"componentType":5126,
			"count":6142,
			"type":"VEC3"
		},
		{
			"bufferView":2,
			"componentType":5126,
			"count":6142,
			"type":"VEC2"
		},
		{
			"bufferView":3,
			"componentType":5123,
			"count":18642,
			"type":"SCALAR"
		}
	],
	"bufferViews":[
		{
			"buffer":0,
			"byteLength":73704,
			"byteOffset":0,
			"target":34962
		},
		{
			"buffer":0,
			"byteLength":73704,
			"byteOffset":73704,
			"target":34962
		},
		{
			"buffer":0,
			"byteLength":49136,
			"byteOffset":147408,
			"target":34962
		},
		{
			"buffer":0,
			"byteLength":37284,
			"byteOffset":196544,
			"target":34963
		},
		{
			"buffer":0,
			"byteLength":1955301,
			"byteOffset":233828
		}
	],
	"samplers":[
		{
			"magFilter":9729,
			"minFilter":9987
		}
	],
	"buffers":[
		{
			"byteLength":2189132,
			"uri":"data:application/octet-stream;base64,"
		}
	]
}
