{
	"asset":{
		"generator":"Khronos glTF Blender I/O v4.4.56",
		"version":"2.0"
	},
	"scene":0,
	"scenes":[
		{
			"name":"Scene",
			"nodes":[
				0
			]
		}
	],
	"nodes":[
		{
			"mesh":0,
			"name":"monitor",
			"scale":[
				0.16397500038146973,
				0.08214868605136871,
				0.0552954375743866
			]
		}
	],
	"materials":[
		{
			"doubleSided":true,
			"name":"e-sports",
			"pbrMetallicRoughness":{
				"baseColorTexture":{
					"index":0
				},
				"metallicFactor":0,
				"roughnessFactor":0.5
			}
		}
	],
	"meshes":[
		{
			"name":"Cube.112",
			"primitives":[
				{
					"attributes":{
						"POSITION":0,
						"NORMAL":1,
						"TEXCOORD_0":2
					},
					"indices":3,
					"material":0
				}
			]
		}
	],
	"textures":[
		{
			"sampler":0,
			"source":0
		}
	],
	"images":[
		{
			"bufferView":4,
			"mimeType":"image/jpeg",
			"name":"myPalette.jpg"
		}
	],
	"accessors":[
		{
			"bufferView":0,
			"componentType":5126,
			"count":1319,
			"max":[
				13.279269218444824,
				13.502679824829102,
				9.37738037109375
			],
			"min":[
				-16.256887435913086,
				-21.758758544921875,
				-11.283977508544922
			],
			"type":"VEC3"
		},
		{
			"bufferView":1,
			"componentType":5126,
			"count":1319,
			"type":"VEC3"
		},
		{
			"bufferView":2,
			"componentType":5126,
			"count":1319,
			"type":"VEC2"
		},
		{
			"bufferView":3,
			"componentType":5123,
			"count":2580,
			"type":"SCALAR"
		}
	],
	"bufferViews":[
		{
			"buffer":0,
			"byteLength":15828,
			"byteOffset":0,
			"target":34962
		},
		{
			"buffer":0,
			"byteLength":15828,
			"byteOffset":15828,
			"target":34962
		},
		{
			"buffer":0,
			"byteLength":10552,
			"byteOffset":31656,
			"target":34962
		},
		{
			"buffer":0,
			"byteLength":5160,
			"byteOffset":42208,
			"target":34963
		},
		{
			"buffer":0,
			"byteLength":1955301,
			"byteOffset":47368
		}
	],
	"samplers":[
		{
			"magFilter":9729,
			"minFilter":9987
		}
	],
	"buffers":[
		{
			"byteLength":2002672,
			"uri":"data:application/octet-stream;base64,"
		}
	]
}
