{
	"asset":{
		"generator":"Khronos glTF Blender I/O v4.4.56",
		"version":"2.0"
	},
	"scene":0,
	"scenes":[
		{
			"name":"Scene",
			"nodes":[
				0
			]
		}
	],
	"nodes":[
		{
			"mesh":0,
			"name":"headphones.001",
			"rotation":[
				-0.5277032852172852,
				-0.8490502834320068,
				-0.013167023658752441,
				0.021671926602721214
			],
			"scale":[
				-0.11732280254364014,
				-0.11732280254364014,
				-0.11483991891145706
			]
		}
	],
	"materials":[
		{
			"doubleSided":true,
			"name":"e-sports.006",
			"pbrMetallicRoughness":{
				"baseColorTexture":{
					"index":0
				},
				"metallicFactor":0,
				"roughnessFactor":0.5
			}
		},
		{
			"doubleSided":true,
			"name":"e-sports.007",
			"pbrMetallicRoughness":{
				"baseColorTexture":{
					"index":1
				},
				"metallicFactor":0,
				"roughnessFactor":0.5
			}
		}
	],
	"meshes":[
		{
			"name":"Cylinder.009",
			"primitives":[
				{
					"attributes":{
						"POSITION":0,
						"NORMAL":1,
						"TEXCOORD_0":2
					},
					"indices":3,
					"material":0
				},
				{
					"attributes":{
						"POSITION":4,
						"NORMAL":5,
						"TEXCOORD_0":6
					},
					"indices":7,
					"material":1
				}
			]
		}
	],
	"textures":[
		{
			"sampler":0,
			"source":0
		},
		{
			"sampler":0,
			"source":0
		}
	],
	"images":[
		{
			"bufferView":4,
			"mimeType":"image/jpeg",
			"name":"myPalette.jpg"
		}
	],
	"accessors":[
		{
			"bufferView":0,
			"componentType":5126,
			"count":6303,
			"max":[
				1.013464331626892,
				4.387030124664307,
				1.2691727876663208
			],
			"min":[
				-5.159681797027588,
				-2.636901378631592,
				-1.248664140701294
			],
			"type":"VEC3"
		},
		{
			"bufferView":1,
			"componentType":5126,
			"count":6303,
			"type":"VEC3"
		},
		{
			"bufferView":2,
			"componentType":5126,
			"count":6303,
			"type":"VEC2"
		},
		{
			"bufferView":3,
			"componentType":5123,
			"count":10740,
			"type":"SCALAR"
		},
		{
			"bufferView":5,
			"componentType":5126,
			"count":6303,
			"max":[
				4.01146936416626,
				-0.5208704471588135,
				1.2691727876663208
			],
			"min":[
				-4.56793212890625,
				-4.867441654205322,
				-1.248664140701294
			],
			"type":"VEC3"
		},
		{
			"bufferView":6,
			"componentType":5126,
			"count":6303,
			"type":"VEC3"
		},
		{
			"bufferView":7,
			"componentType":5126,
			"count":6303,
			"type":"VEC2"
		},
		{
			"bufferView":8,
			"componentType":5123,
			"count":10740,
			"type":"SCALAR"
		}
	],
	"bufferViews":[
		{
			"buffer":0,
			"byteLength":75636,
			"byteOffset":0,
			"target":34962
		},
		{
			"buffer":0,
			"byteLength":75636,
			"byteOffset":75636,
			"target":34962
		},
		{
			"buffer":0,
			"byteLength":50424,
			"byteOffset":151272,
			"target":34962
		},
		{
			"buffer":0,
			"byteLength":21480,
			"byteOffset":201696,
			"target":34963
		},
		{
			"buffer":0,
			"byteLength":1955301,
			"byteOffset":223176
		},
		{
			"buffer":0,
			"byteLength":75636,
			"byteOffset":2178480,
			"target":34962
		},
		{
			"buffer":0,
			"byteLength":75636,
			"byteOffset":2254116,
			"target":34962
		},
		{
			"buffer":0,
			"byteLength":50424,
			"byteOffset":2329752,
			"target":34962
		},
		{
			"buffer":0,
			"byteLength":21480,
			"byteOffset":2380176,
			"target":34963
		}
	],
	"samplers":[
		{
			"magFilter":9729,
			"minFilter":9987
		}
	],
	"buffers":[
		{
			"byteLength":2401656,
			"uri":"data:application/octet-stream;base64,"
		}
	]
}
